<?xml version="1.0" encoding="iso-8859-1"?>
<!-- Generator: Adobe Illustrator 16.0.0, SVG Export Plug-In . SVG Version: 6.00 Build 0)  -->
<!DOCTYPE svg PUBLIC "-//W3C//DTD SVG 1.1//EN" "http://www.w3.org/Graphics/SVG/1.1/DTD/svg11.dtd">
<svg version="1.1" id="Capa_1" xmlns="http://www.w3.org/2000/svg" xmlns:xlink="http://www.w3.org/1999/xlink" x="0px" y="0px"
	 width="377.333px" height="377.332px" viewBox="0 0 377.333 377.332" style="enable-background:new 0 0 377.333 377.332;"
	 xml:space="preserve">
<g>
	<path d="M301.684,53.505H75.646c-10.876,0-19.725,8.843-19.725,19.713v230.904c0,10.868,8.843,19.716,19.725,19.716h226.039
		c10.873,0,19.722-8.843,19.722-19.716V73.218C321.401,62.348,312.557,53.505,301.684,53.505z M166.201,226.48l-23.161-40.738
		l-23.264,40.738H80.569l42.816-75.339L82.811,79.998h39.207l21.03,36.742l21.039-36.742h39.334l-40.7,71.144l42.816,75.339H166.201
		z M338.671,0H38.657C19.089,0,3.22,15.869,3.22,35.434v306.47c0,19.56,15.869,35.429,35.437,35.429h300.02
		c19.568,0,35.436-15.869,35.436-35.429V35.434C374.112,15.869,358.245,0,338.671,0z M335.375,304.122
		c0,18.567-15.113,33.686-33.691,33.686H75.646c-18.576,0-33.695-15.113-33.695-33.686V73.218c0-18.569,15.114-33.688,33.695-33.688
		h226.039c18.572,0,33.691,15.114,33.691,33.688V304.122z"/>
</g>
<g>
</g>
<g>
</g>
<g>
</g>
<g>
</g>
<g>
</g>
<g>
</g>
<g>
</g>
<g>
</g>
<g>
</g>
<g>
</g>
<g>
</g>
<g>
</g>
<g>
</g>
<g>
</g>
<g>
</g>
</svg>
